<?xml version="1.0" standalone="no"?>
<!DOCTYPE svg PUBLIC "-//W3C//DTD SVG 20010904//EN"
 "http://www.w3.org/TR/2001/REC-SVG-20010904/DTD/svg10.dtd">
<svg version="1.0" xmlns="http://www.w3.org/2000/svg"
 width="512.000000pt" height="512.000000pt" viewBox="0 0 512.000000 512.000000"
 preserveAspectRatio="xMidYMid meet">

<g transform="translate(0.000000,512.000000) scale(0.100000,-0.100000)"
fill="#e1e1e1" stroke="none">
<path d="M2403 4786 c-371 -71 -646 -315 -734 -651 -29 -114 -28 -259 5 -543
29 -250 52 -347 110 -476 72 -157 210 -328 343 -422 77 -55 192 -109 275 -129
81 -19 235 -19 316 0 219 52 430 222 570 460 50 85 96 200 117 288 15 65 46
308 64 505 42 448 -232 840 -664 953 -103 27 -301 34 -402 15z"/>
<path d="M1700 2469 c-34 -6 -119 -40 -220 -89 -91 -43 -241 -109 -333 -145
-190 -74 -258 -113 -337 -195 -103 -108 -162 -236 -180 -388 -13 -112 -13
-432 0 -544 18 -159 80 -288 191 -398 118 -117 206 -155 546 -241 781 -196
1600 -197 2378 -3 339 85 439 129 561 250 58 57 81 90 117 165 25 52 50 117
57 144 17 74 25 491 11 612 -18 169 -75 294 -186 407 -81 82 -150 123 -339
195 -87 33 -233 97 -325 141 -266 127 -325 128 -562 6 -165 -85 -272 -120
-418 -136 -203 -22 -381 15 -596 125 -77 40 -156 77 -175 83 -54 17 -130 21
-190 11z"/>
</g>
</svg>
