<?xml version="1.0" standalone="no"?>
<!DOCTYPE svg PUBLIC "-//W3C//DTD SVG 20010904//EN"
 "http://www.w3.org/TR/2001/REC-SVG-20010904/DTD/svg10.dtd">
<svg version="1.0" xmlns="http://www.w3.org/2000/svg"
 width="64.000000pt" height="64.000000pt" viewBox="0 0 64.000000 64.000000"
 preserveAspectRatio="xMidYMid meet">

<g transform="translate(0.000000,64.000000) scale(0.100000,-0.100000)"
fill="#ffffff" stroke="none">
<path d="M210 530 c-14 -5 -44 -14 -68 -20 -57 -15 -117 -75 -133 -132 -32
-121 37 -229 166 -260 70 -16 433 -22 451 -7 19 15 21 398 2 417 -7 7 -42 12
-85 12 -58 0 -73 -3 -73 -15 0 -12 14 -15 70 -15 l70 0 0 -190 0 -190 -190 0
-190 0 0 190 0 189 73 3 c39 2 72 8 72 13 0 12 -131 16 -165 5z m-10 -74 c0
-39 -3 -45 -30 -56 -33 -14 -50 -37 -50 -69 0 -15 -10 -23 -37 -30 -53 -15
-53 -15 -53 29 0 68 40 124 110 154 54 24 60 21 60 -28z m0 -85 c0 -5 -7 -14
-15 -21 -20 -16 -19 -39 2 -62 19 -22 9 -37 -15 -22 -29 19 -38 59 -18 88 16
25 46 36 46 17z m-63 -107 c7 -18 -22 -84 -36 -84 -11 0 -61 58 -61 71 0 26
87 38 97 13z m63 -81 c0 -44 -1 -45 -27 -38 -43 10 -47 21 -24 59 30 47 51 38
51 -21z"/>
<path d="M415 531 c-3 -5 -1 -12 5 -16 5 -3 10 1 10 9 0 18 -6 21 -15 7z"/>
<path d="M420 381 l0 -61 -34 0 c-42 0 -66 -22 -66 -59 0 -34 28 -61 62 -61
39 0 58 29 58 88 0 58 9 64 46 27 37 -37 45 -31 42 26 -3 56 -25 81 -80 95
l-28 6 0 -61z m58 13 c12 -8 22 -24 22 -35 0 -18 -2 -19 -30 -4 -18 9 -30 23
-30 35 0 24 8 25 38 4z m-74 -110 c9 -8 16 -19 16 -24 0 -9 -28 -40 -36 -40
-17 0 -44 23 -44 38 0 38 37 53 64 26z"/>
</g>
</svg>
